<svg width="48" height="48" viewBox="0 0 48 48" fill="none" xmlns="http://www.w3.org/2000/svg">
<g id="icon-placeholder">
<g id="Shape">
<path d="M10 4C8.4087 4 6.88258 4.63214 5.75736 5.75736C4.63214 6.88258 4 8.4087 4 10V16C4 17.1046 4.89543 18 6 18C7.10457 18 8 17.1046 8 16V10C8 9.46957 8.21071 8.96086 8.58579 8.58579C8.96086 8.21071 9.46957 8 10 8H16C17.1046 8 18 7.10457 18 6C18 4.89543 17.1046 4 16 4H10Z" fill="#2D3648"/>
<path d="M32 4C30.8954 4 30 4.89543 30 6C30 7.10457 30.8954 8 32 8H38C38.5304 8 39.0391 8.21071 39.4142 8.58579C39.7893 8.96086 40 9.46957 40 10V16C40 17.1046 40.8954 18 42 18C43.1046 18 44 17.1046 44 16V10C44 8.4087 43.3679 6.88258 42.2426 5.75736C41.1174 4.63214 39.5913 4 38 4H32Z" fill="#2D3648"/>
<path d="M8 32C8 30.8954 7.10457 30 6 30C4.89543 30 4 30.8954 4 32V38C4 39.5913 4.63214 41.1174 5.75736 42.2426C6.88258 43.3679 8.4087 44 10 44H16C17.1046 44 18 43.1046 18 42C18 40.8954 17.1046 40 16 40H10C9.46957 40 8.96086 39.7893 8.58579 39.4142C8.21071 39.0391 8 38.5304 8 38V32Z" fill="#2D3648"/>
<path d="M44 32C44 30.8954 43.1046 30 42 30C40.8954 30 40 30.8954 40 32V38C40 38.5304 39.7893 39.0391 39.4142 39.4142C39.0391 39.7893 38.5304 40 38 40H32C30.8954 40 30 40.8954 30 42C30 43.1046 30.8954 44 32 44H38C39.5913 44 41.1174 43.3679 42.2426 42.2426C43.3679 41.1174 44 39.5913 44 38V32Z" fill="#2D3648"/>
</g>
</g>
</svg>
