<svg width="40" height="34" viewBox="0 0 40 34" fill="none" xmlns="http://www.w3.org/2000/svg">
<g id="icon-upload">
<g id="Shape">
<path d="M21.1785 3.24825C20.5276 2.695 19.4724 2.695 18.8215 3.24825L10.4882 10.3316C9.83729 10.8848 9.83729 11.7818 10.4882 12.335C11.139 12.8883 12.1943 12.8883 12.8452 12.335L18.3333 7.67011V21.3512C18.3333 22.1336 19.0795 22.7679 20 22.7679C20.9205 22.7679 21.6667 22.1336 21.6667 21.3512V7.67011L27.1548 12.335C27.8057 12.8883 28.861 12.8883 29.5119 12.335C30.1627 11.7818 30.1627 10.8848 29.5119 10.3316L21.1785 3.24825Z" fill="#2D3648"/>
<path d="M6.66668 21.25C6.66668 20.4676 5.92048 19.8333 5.00001 19.8333C4.07954 19.8333 3.33334 20.4676 3.33334 21.25V26.9166C3.33334 28.0438 3.86013 29.1248 4.79781 29.9218C5.73549 30.7189 7.00726 31.1666 8.33334 31.1666H31.6667C32.9928 31.1666 34.2645 30.7189 35.2022 29.9218C36.1399 29.1248 36.6667 28.0438 36.6667 26.9166V21.25C36.6667 20.4676 35.9205 19.8333 35 19.8333C34.0795 19.8333 33.3333 20.4676 33.3333 21.25V26.9166C33.3333 27.2924 33.1578 27.6527 32.8452 27.9184C32.5326 28.1841 32.1087 28.3333 31.6667 28.3333H8.33334C7.89132 28.3333 7.46739 28.1841 7.15483 27.9184C6.84227 27.6527 6.66668 27.2924 6.66668 26.9166V21.25Z" fill="#2D3648"/>
</g>
</g>
</svg>
